<svg viewBox="-5 -5 10 10" xmlns="http://www.w3.org/2000/svg">
<style>
    path {
        fill: none;
        stroke: #0172ad;
        stroke-linejoin: round;
        stroke-linecap: round;
        stroke-width: 1.5;
    }
</style>
    <path d="
    M -4.000 3.200 L -3.837 2.578 L -3.673 2.018 L -3.510 1.517 L -3.347 1.072 
    L -3.184 0.680 L -3.020 0.339 L -2.857 0.047 L -2.694 -0.200 L -2.531 -0.404 
    L -2.367 -0.567 L -2.204 -0.693 L -2.041 -0.783 L -1.878 -0.840 L -1.714 -0.868 
    L -1.551 -0.868 L -1.388 -0.843 L -1.224 -0.796 L -1.061 -0.729 L -0.898 -0.646 
    L -0.735 -0.548 L -0.571 -0.438 L -0.408 -0.320 L -0.245 -0.194 L -0.082 -0.065 
    L 0.082 0.065 L 0.245 0.194 L 0.408 0.320 L 0.571 0.438 L 0.735 0.548 L 0.898 0.646 
    L 1.061 0.729 L 1.224 0.796 L 1.388 0.843 L 1.551 0.868 L 1.714 0.868 L 1.878 0.840 
    L 2.041 0.783 L 2.204 0.693 L 2.367 0.567 L 2.531 0.404 L 2.694 0.200 L 2.857 -0.047 
    L 3.020 -0.339 L 3.184 -0.680 L 3.347 -1.072 L 3.510 -1.517 L 3.673 -2.018 
    L 3.837 -2.578 L 4.000 -3.200"/>
</svg>