<svg xmlns="http://www.w3.org/2000/svg" x="0" y="0" width="600" height="600" viewBox="-300 -300 600 600">

<path d="M -37.118,-167.132 L -40.689,-176.776 L -41.128,-187.779 L -38.417,-199.717 L -32.661,-212.132 L -24.08,-224.548 L -13.006,-236.486 L 0.137,-247.489 L 14.843,-257.132 L 30.548,-265.047 L 46.648,-270.928 L 62.524,-274.549 L 77.567,-275.772 L 91.197,-274.549 L 102.891,-270.928 L 112.2,-265.047 L 118.766,-257.132 L 122.337,-247.489 L 122.776,-236.486 L 120.065,-224.548 L 114.309,-212.133 L 105.729,-199.717 L 94.655,-187.779 L 81.512,-176.776 L 66.805,-167.132 L 51.1,-159.218 L 35.0,-153.337 L 19.124,-149.716 L 4.082,-148.493 L -9.548,-149.716 L -21.243,-153.337 L -30.552,-159.218 Z" fill="#FF7000" stroke-width="0"/>
<path d="M -85.733,-275.773 L -72.102,-274.55 L -60.408,-270.928 L -51.099,-265.047 L -44.533,-257.133 L -40.962,-247.489 L -40.523,-236.487 L -43.234,-224.548 L -48.99,-212.133 L -57.101,-198.084 L -93.897,-134.351 L -0.0,-134.351 L 150.0,-134.351 L 159.217,-134.35 L 172.847,-133.127 L 184.541,-129.506 L 193.85,-123.625 L 200.417,-115.711 L 203.987,-106.067 L 204.426,-95.064 L 201.715,-83.126 L 195.959,-70.711 L 187.379,-58.295 L 176.305,-46.357 L 163.162,-35.354 L 148.455,-25.711 L 132.75,-17.796 L 116.65,-11.915 L 100.774,-8.294 L 85.732,-7.071 L -0.0,-7.072 L -150.0,-7.072 L -240.867,-7.072 L -254.497,-8.295 L -266.191,-11.916 L -275.5,-17.797 L -282.067,-25.711 L -285.637,-35.355 L -286.076,-46.358 L -283.365,-58.296 L -277.609,-70.711 L -242.328,-131.82 L -195.96,-212.133 L -187.38,-224.548 L -176.305,-236.487 L -163.162,-247.489 L -148.456,-257.133 L -132.751,-265.047 L -116.651,-270.928 L -100.775,-274.55 Z" fill="#00A080" stroke-width="0"/>
<path d="M 85.733,275.773 L 72.102,274.55 L 60.408,270.928 L 51.099,265.047 L 44.533,257.133 L 40.962,247.489 L 40.523,236.487 L 43.234,224.548 L 48.99,212.133 L 57.101,198.084 L 93.897,134.351 L -0.0,134.351 L -150.0,134.351 L -159.217,134.35 L -172.847,133.127 L -184.541,129.506 L -193.85,123.625 L -200.417,115.711 L -203.988,106.067 L -204.426,95.064 L -201.715,83.126 L -195.959,70.711 L -187.379,58.295 L -176.305,46.357 L -163.162,35.354 L -148.455,25.711 L -132.75,17.796 L -116.65,11.915 L -100.774,8.294 L -85.732,7.071 L 0.0,7.072 L 150.0,7.072 L 240.867,7.072 L 254.497,8.295 L 266.191,11.916 L 275.5,17.797 L 282.067,25.711 L 285.637,35.355 L 286.076,46.358 L 283.365,58.296 L 277.609,70.711 L 242.328,131.82 L 195.96,212.133 L 187.38,224.548 L 176.305,236.487 L 163.162,247.489 L 148.456,257.133 L 132.751,265.047 L 116.651,270.928 L 100.775,274.55 Z" fill="#FF7000" stroke-width="0"/>
<path d="M 37.118,167.132 L 40.689,176.776 L 41.128,187.779 L 38.417,199.717 L 32.661,212.132 L 24.08,224.548 L 13.006,236.486 L -0.137,247.489 L -14.843,257.132 L -30.548,265.047 L -46.648,270.928 L -62.524,274.549 L -77.567,275.772 L -91.197,274.549 L -102.891,270.928 L -112.2,265.047 L -118.767,257.132 L -122.337,247.489 L -122.776,236.486 L -120.065,224.548 L -114.309,212.133 L -105.729,199.717 L -94.655,187.779 L -81.512,176.776 L -66.805,167.132 L -51.1,159.218 L -35.0,153.337 L -19.124,149.716 L -4.082,148.493 L 9.548,149.716 L 21.243,153.337 L 30.552,159.218 Z" fill="#00A080" stroke-width="0"/>

</svg>
