<svg viewBox="0 0 24400 12200" xmlns="http://www.w3.org/2000/svg">
<style>
.grid {fill: none; stroke: rgb(179,179,179); stroke-width: 40; stroke-linejoin: round; stroke-dasharray: 27.81;}
.tick {fill: none; stroke: rgb(1,114,173); stroke-width: 80; stroke-linejoin: round;}
text {font-size: 600px;}
</style>
<path fill="none" stroke="rgb(179,179,179)" stroke-width="40" stroke-linejoin="round" 
d="M 12801,10360 L 1921,10360 1921,430 23681,430 23681,10360 12801,10360 Z"/>

<path class="grid" d="M 4641,429 L 4641,10359"/>
<path class="grid" d="M 7361,429 L 7361,10359"/>
<path class="grid" d="M 10081,429 L 10081,10359"/>
<path class="grid" d="M 12800,429 L 12800,10359"/>
<path class="grid" d="M 15520,429 L 15520,10359"/>
<path class="grid" d="M 18240,429 L 18240,10359"/>
<path class="grid" d="M 20960,429 L 20960,10359"/>
<path class="grid" d="M 23681,7876 L 1921,7876"/>
<path class="grid" d="M 23681,5394 L 1921,5394"/>
<path class="grid" d="M 23681,2911 L 1921,2911"/>

<path class="tick" d="M 1921,10509 L 1921,10359"/>
<path class="tick" d="M 1921,10509 L 1921,10359"/>
<path class="tick" d="M 4641,10509 L 4641,10359"/>
<path class="tick" d="M 4641,10509 L 4641,10359"/>
<path class="tick" d="M 7361,10509 L 7361,10359"/>
<path class="tick" d="M 7361,10509 L 7361,10359"/>
<path class="tick" d="M 10081,10509 L 10081,10359"/>
<path class="tick" d="M 10081,10509 L 10081,10359"/>
<path class="tick" d="M 12800,10509 L 12800,10359"/>
<path class="tick" d="M 12800,10509 L 12800,10359"/>
<path class="tick" d="M 15520,10509 L 15520,10359"/>
<path class="tick" d="M 15520,10509 L 15520,10359"/>
<path class="tick" d="M 18240,10509 L 18240,10359"/>
<path class="tick" d="M 18240,10509 L 18240,10359"/>
<path class="tick" d="M 20960,10509 L 20960,10359"/>
<path class="tick" d="M 20960,10509 L 20960,10359"/>
<path class="tick" d="M 23681,10509 L 23681,10359"/>
<path class="tick" d="M 23681,10509 L 23681,10359"/>
<path class="tick" d="M 1921,10359 L 23681,10359"/>
<path class="tick" d="M 1771,10359 L 1921,10359"/>
<path class="tick" d="M 1771,10359 L 1921,10359"/>
<path class="tick" d="M 1771,7876 L 1921,7876"/>
<path class="tick" d="M 1771,7876 L 1921,7876"/>
<path class="tick" d="M 1771,5394 L 1921,5394"/>
<path class="tick" d="M 1771,5394 L 1921,5394"/>
<path class="tick" d="M 1771,2911 L 1921,2911"/>
<path class="tick" d="M 1771,2911 L 1921,2911"/>
<path class="tick" d="M 1771,429 L 1921,429"/>
<path class="tick" d="M 1771,429 L 1921,429"/>
<path class="tick" d="M 1921,10359 L 1921,429"/>

<path fill="none" stroke="rgb(179,179,179)" stroke-linejoin="round" stroke-width="80" d="M 4641,7876 L 10761,5394 20960,2911"/>
<path fill="rgb(255,0,0)" stroke="rgb(179,179,179)" stroke-width="80" d="M 5141,7876 L 5140,7854 5139,7832 5136,7810 5133,7789 5129,7768 5124,7746 5117,7725 5110,7705 5103,7684 5094,7664 5084,7645 5074,7626 5062,7607 5050,7589 5037,7571 5024,7554 5009,7538 4994,7522 4978,7507 4962,7493 4945,7479 4927,7466 4909,7454 4891,7443 4871,7432 4852,7423 4832,7414 4812,7406 4791,7399 4770,7393 4749,7388 4727,7383 4706,7380 4684,7378 4662,7376 4641,7376 4619,7376 4597,7378 4575,7380 4554,7383 4532,7388 4511,7393 4490,7399 4470,7406 4449,7414 4429,7423 4410,7432 4391,7443 4372,7454 4354,7466 4336,7479 4319,7493 4303,7507 4287,7522 4272,7538 4258,7554 4244,7571 4231,7589 4219,7607 4208,7626 4197,7645 4187,7664 4179,7684 4171,7705 4164,7725 4158,7746 4152,7768 4148,7789 4145,7810 4143,7832 4141,7854 4141,7876 4141,7898 4143,7919 4145,7941 4148,7963 4152,7984 4158,8005 4164,8026 4171,8047 4179,8067 4187,8087 4197,8107 4208,8126 4219,8144 4231,8163 4244,8180 4258,8197 4272,8214 4287,8229 4303,8244 4319,8259 4336,8272 4354,8285 4372,8297 4391,8309 4410,8319 4429,8329 4449,8338 4470,8346 4490,8353 4511,8359 4532,8364 4554,8368 4575,8371 4597,8374 4619,8375 4641,8376 4662,8375 4684,8374 4706,8371 4727,8368 4749,8364 4770,8359 4791,8353 4812,8346 4832,8338 4852,8329 4871,8319 4891,8309 4909,8297 4927,8285 4945,8272 4962,8259 4978,8244 4994,8229 5009,8214 5024,8197 5037,8180 5050,8163 5062,8144 5074,8126 5084,8107 5094,8087 5103,8067 5110,8047 5117,8026 5124,8005 5129,7984 5133,7963 5136,7941 5139,7919 5140,7898 5141,7876 Z"/> 
<path fill="rgb(1,114,173)" stroke="rgb(179,179,179)" stroke-width="80" d="M 11261,5394 L 11260,5372 11259,5350 11257,5329 11253,5307 11249,5286 11244,5265 11238,5244 11231,5223 11223,5203 11214,5183 11204,5163 11194,5144 11183,5125 11170,5107 11158,5090 11144,5073 11130,5056 11114,5040 11099,5025 11082,5011 11065,4997 11048,4984 11030,4972 11011,4961 10992,4950 10972,4941 10952,4932 10932,4924 10911,4917 10890,4911 10869,4906 10848,4902 10826,4898 10804,4896 10783,4894 10761,4894 10739,4894 10717,4896 10696,4898 10674,4902 10653,4906 10631,4911 10611,4917 10590,4924 10570,4932 10550,4941 10530,4950 10511,4961 10492,4972 10474,4984 10457,4997 10440,5011 10423,5025 10407,5040 10392,5056 10378,5073 10364,5090 10351,5107 10339,5125 10328,5144 10317,5163 10308,5183 10299,5203 10291,5223 10284,5244 10278,5265 10273,5286 10269,5307 10265,5329 10263,5350 10261,5372 10261,5394 10261,5416 10263,5438 10265,5459 10269,5481 10273,5502 10278,5523 10284,5544 10291,5565 10299,5585 10308,5605 10317,5625 10328,5644 10339,5663 10351,5681 10364,5698 10378,5715 10392,5732 10407,5748 10423,5763 10440,5777 10457,5791 10474,5804 10492,5816 10511,5827 10530,5838 10550,5847 10570,5856 10590,5864 10611,5871 10631,5877 10653,5882 10674,5886 10696,5890 10717,5892 10739,5894 10761,5894 10783,5894 10804,5892 10826,5890 10848,5886 10869,5882 10890,5877 10911,5871 10932,5864 10952,5856 10972,5847 10992,5838 11011,5827 11030,5816 11048,5804 11065,5791 11082,5777 11099,5763 11114,5748 11130,5732 11144,5715 11158,5698 11170,5681 11183,5663 11194,5644 11204,5625 11214,5605 11223,5585 11231,5565 11238,5544 11244,5523 11249,5502 11253,5481 11257,5459 11259,5438 11260,5416 11261,5394 Z"/>
<path fill="rgb(37,211,102)" stroke="rgb(179,179,179)" stroke-width="80" d="M 21460,2911 L 21460,2889 21458,2868 21456,2846 21453,2824 21449,2803 21443,2782 21437,2761 21430,2740 21422,2720 21414,2700 21404,2680 21393,2661 21382,2643 21370,2624 21357,2607 21343,2590 21329,2573 21314,2558 21298,2543 21282,2528 21265,2515 21247,2502 21229,2490 21210,2478 21191,2468 21172,2458 21152,2449 21131,2441 21111,2434 21090,2428 21069,2423 21047,2419 21026,2416 21004,2413 20982,2412 20960,2411 20939,2412 20917,2413 20895,2416 20874,2419 20852,2423 20831,2428 20810,2434 20789,2441 20769,2449 20749,2458 20730,2468 20710,2478 20692,2490 20674,2502 20656,2515 20639,2528 20623,2543 20607,2558 20592,2573 20577,2590 20564,2607 20551,2624 20539,2643 20527,2661 20517,2680 20507,2700 20498,2720 20491,2740 20484,2761 20477,2782 20472,2803 20468,2824 20465,2846 20462,2868 20461,2889 20460,2911 20461,2933 20462,2955 20465,2977 20468,2998 20472,3019 20477,3041 20484,3062 20491,3082 20498,3103 20507,3123 20517,3142 20527,3161 20539,3180 20551,3198 20564,3216 20577,3233 20592,3249 20607,3265 20623,3280 20639,3294 20656,3308 20674,3321 20692,3333 20710,3344 20730,3355 20749,3364 20769,3373 20789,3381 20810,3388 20831,3394 20852,3399 20874,3404 20895,3407 20917,3409 20939,3411 20960,3411 20982,3411 21004,3409 21026,3407 21047,3404 21069,3399 21090,3394 21111,3388 21131,3381 21152,3373 21172,3364 21191,3355 21210,3344 21229,3333 21247,3321 21265,3308 21282,3294 21298,3280 21314,3265 21329,3249 21343,3233 21357,3216 21370,3198 21382,3180 21393,3161 21404,3142 21414,3123 21422,3103 21430,3082 21437,3062 21443,3041 21449,3019 21453,2998 21456,2977 21458,2955 21460,2933 21460,2911 Z"/>

<text x="4548" y="11150">0</text>
<text x="7268" y="11150">2</text>
<text x="9988" y="11150">4</text>
<text x="12707" y="11150">6</text>
<text x="15427" y="11150">8</text>
<text x="18055" y="11150">10</text>
<text x="20775" y="11150">12</text>

<text x="1300" y="7996">3</text>
<text x="1300" y="5514">4</text>
<text x="1300" y="3031">5</text>

<text x="3500" y="6600">Старт</text>
<text x="9000" y="4100">4–5 месяцев</text>
<text x="19000" y="1700">12 месяцев</text>
<text x="6600" y="12000">Продолжительность обучения, месяцы</text>
<text x="950" y="8700" transform="rotate(-90 950 8700)">Успеваемость, оценки</text>
</svg>
